<svg width="40" height="40" fill="none" xmlns="http://www.w3.org/2000/svg"><path d="M38.388 3H1.704C.802 3 0 3.802 0 4.704v23.353c0 .902.802 1.704 1.704 1.704h14.734c-.2 1.704-.902 3.308-1.905 4.711H12.53c-.602 0-1.003.4-1.003 1.002s.401 1.003 1.003 1.003h14.934c.601 0 1.002-.401 1.002-1.003 0-.601-.4-1.002-1.002-1.002h-2.005c-1.102-1.403-1.704-3.007-1.904-4.71h14.734c.902 0 1.704-.803 1.704-1.705V4.704C40.092 3.802 39.29 3 38.388 3Zm-.3 2.005v18.342H2.004V16.43h8.52c.7 0 1.402-.401 1.703-1.103l1.303-3.107 2.606 7.016c.3.702.902 1.103 1.604 1.203h.1c.701 0 1.303-.401 1.604-1.002l3.307-6.215 2.406 4.01c.4.6 1.002.902 1.703.902.702 0 1.303-.502 1.604-1.103l3.608-8.018c.2-.501 0-1.103-.5-1.303-.502-.2-1.103 0-1.304.5l-3.407 7.618-2.406-4.009a2.14 2.14 0 0 0-1.704-.802c-.701 0-1.303.401-1.604 1.003l-3.307 6.214-2.606-7.217c-.3-.701-.902-1.202-1.704-1.202-.702 0-1.403.4-1.704 1.102l-1.403 3.408h-8.42V5.005h36.083ZM23.052 34.472h-6.014c.802-1.403 1.303-3.007 1.503-4.71h3.107c.1 1.703.602 3.307 1.404 4.71ZM2.005 27.757V25.35h36.082v2.406H2.005Z" fill="#000"/></svg>