<svg width="40" height="40" fill="none" xmlns="http://www.w3.org/2000/svg"><path d="M29.444 14.333 19.18 24.598c-.374.374-.561.561-.777.631a.943.943 0 0 1-.584 0c-.215-.07-.402-.257-.776-.63l-3.53-3.53c-.374-.374-.561-.561-.777-.632a.945.945 0 0 0-.583 0c-.216.07-.403.258-.777.631L3 29.444m26.444-15.11H21.89m7.555 0v7.555M12.067 37h15.866c3.174 0 4.76 0 5.973-.618a5.667 5.667 0 0 0 2.476-2.476C37 32.694 37 31.107 37 27.933V12.067c0-3.174 0-4.76-.618-5.973a5.667 5.667 0 0 0-2.476-2.476C32.694 3 31.107 3 27.933 3H12.067c-3.174 0-4.76 0-5.973.618a5.667 5.667 0 0 0-2.476 2.476C3 7.306 3 8.893 3 12.067v15.866c0 3.174 0 4.76.618 5.973a5.667 5.667 0 0 0 2.476 2.476C7.306 37 8.893 37 12.067 37Z" stroke="#000" stroke-width="2" stroke-linecap="round" stroke-linejoin="round"/></svg>