<svg width="40" height="40" fill="none" xmlns="http://www.w3.org/2000/svg"><path fill-rule="evenodd" clip-rule="evenodd" d="M21.386 2.386a1 1 0 1 0-2 0v4.632a1 1 0 1 0 2 0V2.386ZM12.98 12.911a1.667 1.667 0 0 1 1.625-1.297h10.79c.778 0 1.453.538 1.625 1.297l2.068 9.088a1.667 1.667 0 0 1-1.625 2.036H12.537A1.667 1.667 0 0 1 10.912 22l2.068-9.088Zm1.89.703-1.915 8.421h14.09l-1.916-8.421H14.871ZM4.378 26.088c-.778 0-1.453.538-1.625 1.297L.683 36.472a1.667 1.667 0 0 0 1.625 2.037h14.926c1.07 0 1.862-.994 1.625-2.037l-2.068-9.087a1.667 1.667 0 0 0-1.625-1.297H4.377Zm-1.65 10.42 1.916-8.42H14.9l1.916 8.42H2.727Zm22.106-10.42c-.778 0-1.453.538-1.625 1.297l-2.068 9.087a1.667 1.667 0 0 0 1.625 2.037h14.926c1.07 0 1.862-.994 1.625-2.037l-2.068-9.087a1.667 1.667 0 0 0-1.625-1.297h-10.79Zm-1.65 10.42 1.916-8.42h10.258l1.916 8.42h-14.09ZM5.077 6.517a1 1 0 0 1 1.414 0l1.637 1.638L9.766 9.79a1 1 0 1 1-1.414 1.414L6.714 9.568 5.077 7.93a1 1 0 0 1 0-1.414Zm30.665 1.407a1 1 0 0 0-1.414-1.415L32.69 8.146l-1.637 1.637a1 1 0 0 0 1.414 1.415l1.637-1.638 1.638-1.637Z" fill="#000"/></svg>